<?xml version="1.0" encoding="utf-8"?>
<svg data-name="Layer 1" width="568.73047" height="381.17967" viewBox="0 0 568.73047 381.17967" xmlns="http://www.w3.org/2000/svg" xmlns:bx="https://boxy-svg.com">
  <defs>
    <filter id="filter-0" primitiveUnits="userSpaceOnUse" filterUnits="objectBoundingBox" x="-10%" y="-10%" width="120%" height="120%" bx:pinned="true">
      <feGaussianBlur result="gaussian-blur-0" in="none" stdDeviation="1"/>
    </filter>
  </defs>
  <g>
    <path d="M 567.73 47.311 L 1 47.311 C 0.23 47.311 -0.251 46.477 0.134 45.811 C 0.313 45.501 0.643 45.311 1 45.311 L 567.73 45.311 C 568.5 45.311 568.981 46.144 568.597 46.811 C 568.418 47.12 568.088 47.311 567.73 47.311 Z" fill="#e6e6e6" style="opacity: 0.7; fill-opacity: 0.9;"/>
    <ellipse cx="29.355" cy="8.645" rx="8.457" ry="8.645" fill="#e6e6e6" style="opacity: 0.6; fill-opacity: 0.9;"/>
    <ellipse cx="58.569" cy="8.645" rx="8.457" ry="8.645" fill="#e6e6e6" style="opacity: 0.7; fill-opacity: 0.9; filter: url(#filter-0);"/>
    <ellipse cx="87.782" cy="8.645" rx="8.457" ry="8.645" fill="#e6e6e6" style="opacity: 0.7; fill-opacity: 0.9;"/>
    <path d="M 121.094 15.478 C 120.825 15.478 120.567 15.37 120.379 15.177 L 114.673 9.344 C 114.293 8.956 114.293 8.334 114.673 7.946 L 120.379 2.113 C 120.922 1.568 121.852 1.815 122.053 2.559 C 122.144 2.897 122.051 3.259 121.809 3.512 L 116.787 8.645 L 121.809 13.779 C 122.347 14.329 122.088 15.256 121.342 15.447 C 121.261 15.467 121.177 15.478 121.094 15.478 L 121.094 15.478 Z" fill="#e6e6e6" style="opacity: 0.7; fill-opacity: 0.9;"/>
    <path d="M 130.682 15.478 C 129.912 15.478 129.431 14.644 129.816 13.978 C 129.858 13.905 129.909 13.838 129.967 13.779 L 134.989 8.645 L 129.967 3.512 C 129.434 2.956 129.702 2.032 130.45 1.848 C 130.79 1.764 131.15 1.865 131.397 2.113 L 137.103 7.946 C 137.483 8.334 137.483 8.956 137.103 9.344 L 131.397 15.177 C 131.209 15.37 130.951 15.478 130.682 15.478 Z" fill="#e6e6e6" style="opacity: 0.7; fill-opacity: 0.9;"/>
    <path d="M 517.192 1.001 L 506.582 1.001 C 505.372 1.001 504.392 1.981 504.392 3.191 L 504.392 13.811 C 504.392 15.021 505.372 16.001 506.582 16.001 L 517.192 16.001 C 518.404 16.002 519.388 15.022 519.392 13.811 L 519.392 3.191 C 519.388 1.979 518.404 1 517.192 1.001 Z" fill="#e6e6e6" style="opacity: 0.7; fill-opacity: 0.9; filter: url(#filter-0);"/>
    <path d="M 491.192 1.001 L 480.582 1.001 C 479.372 1.001 478.392 1.981 478.392 3.191 L 478.392 13.811 C 478.392 15.021 479.372 16.001 480.582 16.001 L 491.192 16.001 C 492.404 16.002 493.388 15.022 493.392 13.811 L 493.392 3.191 C 493.388 1.979 492.404 1 491.192 1.001 Z" fill="#e6e6e6" style="opacity: 0.7; fill-opacity: 0.9; filter: url(#filter-0);"/>
    <path d="M 541.692 1.501 L 531.082 1.501 C 529.872 1.501 528.892 2.481 528.892 3.691 L 528.892 14.311 C 528.892 15.521 529.872 16.501 531.082 16.501 L 541.692 16.501 C 542.904 16.502 543.888 15.522 543.892 14.311 L 543.892 3.691 C 543.888 2.479 542.904 1.5 541.692 1.501 Z" fill="#e6e6e6" style="opacity: 0.7; fill-opacity: 0.9; filter: url(#filter-0);"/>
    <path d="M 326.77 5.541 L 241.96 5.541 C 239.905 5.541 238.62 7.766 239.648 9.546 C 240.125 10.372 241.006 10.881 241.96 10.881 L 326.77 10.881 C 328.826 10.881 330.11 8.656 329.083 6.876 C 328.606 6.05 327.724 5.541 326.77 5.541 Z" fill="#e6e6e6" style="opacity: 0.7; fill-opacity: 0.9;"/>
    <path d="M 184.571 265.8 L 100.571 265.8 C 88.639 265.8 81.182 278.717 87.148 289.05 C 89.916 293.846 95.033 296.8 100.571 296.8 L 184.571 296.8 C 196.503 296.8 203.96 283.884 197.994 273.55 C 195.225 268.755 190.109 265.8 184.571 265.8 Z" fill="#fff" style="opacity: 0.7; fill-opacity: 0.9; filter: url(#filter-0);"/>
    <path d="M 184.571 297.8 L 100.571 297.8 C 87.869 297.8 79.931 284.05 86.281 273.05 C 89.229 267.945 94.676 264.8 100.571 264.8 L 184.571 264.8 C 197.273 264.8 205.211 278.55 198.86 289.55 C 195.913 294.655 190.466 297.8 184.571 297.8 Z M 100.571 266.8 C 89.409 266.8 82.432 278.884 88.013 288.55 C 90.604 293.037 95.39 295.8 100.571 295.8 L 184.571 295.8 C 195.733 295.8 202.709 283.717 197.128 274.05 C 194.538 269.564 189.751 266.8 184.571 266.8 L 100.571 266.8 Z" fill="#f9a826" style="opacity: 0.7; fill-opacity: 0.9;"/>
    <rect x="264.928" y="103.589" width="280.481" height="277.59" rx="26.744" fill="#f2f2f2" style="opacity: 0.8; fill-opacity: 0.9; filter: url(#filter-0);"/>
    <path d="M 416.108 218.083 C 414.657 216.496 414.733 214.042 416.279 212.547 C 416.433 212.404 416.598 212.273 416.773 212.156 L 413.427 198.714 L 419.65 194.616 L 422.244 213.526 C 423.121 215.096 422.83 217.06 421.536 218.308 C 420.015 219.746 417.617 219.68 416.179 218.159 C 416.155 218.134 416.131 218.109 416.108 218.083 Z" fill="#ffb6b6" style="opacity: 0.7; fill-opacity: 0.9; filter: url(#filter-0);"/>
    <path d="M 422.56 204.83 L 414.397 205.588 L 402.276 162.955 C 402.241 162.837 398.651 150.864 395.026 148.991 C 393.675 148.294 393.18 147.877 393.2 147.454 C 393.22 147.016 393.769 146.795 394.527 146.488 C 395.29 146.215 396.011 145.836 396.667 145.36 C 398.321 144.053 397.593 142.793 396.587 141.05 C 396.392 140.712 396.189 140.36 395.994 139.992 C 395.421 138.906 396.062 134.29 397.901 126.274 C 399.023 121.352 403.192 117.715 408.22 117.273 C 414.746 116.687 420.472 121.593 420.894 128.131 L 422.488 152.82 L 422.56 204.83 Z" fill="#f9a826" style="opacity: 0.7; fill-opacity: 0.9;"/>
    <polygon points="390.503 356.676 384.825 356.629 382.311 334.216 390.692 334.287 390.503 356.676" fill="#ffb6b6" style="opacity: 0.8; fill-opacity: 0.9; filter: url(#filter-0);"/>
    <path d="M 372.315 365.706 C 372.305 367.107 373.431 368.253 374.832 368.266 L 386.122 368.361 L 388.098 364.355 L 388.824 368.381 L 393.084 368.42 L 392.008 354.058 L 390.526 353.96 L 384.481 353.543 L 382.531 353.413 L 382.497 357.476 L 373.428 363.627 C 372.738 364.095 372.322 364.872 372.315 365.706 Z" fill="#2f2e41" style="opacity: 0.8; fill-opacity: 0.9; filter: url(#filter-0);"/>
    <polygon points="450.286 352.528 444.859 354.196 435.697 333.588 443.708 331.126 450.286 352.528" fill="#ffb6b6" style="opacity: 0.8; fill-opacity: 0.9; filter: url(#filter-0);"/>
    <path d="M 435.672 366.626 C 436.086 367.965 437.505 368.718 438.845 368.308 L 449.636 364.99 L 450.311 360.574 L 452.219 364.193 L 456.291 362.944 L 450.931 349.578 L 449.488 349.931 L 443.599 351.359 L 441.701 351.823 L 442.895 355.707 L 436.106 364.309 C 435.589 364.963 435.428 365.829 435.672 366.626 Z" fill="#2f2e41" style="opacity: 0.8; fill-opacity: 0.9; filter: url(#filter-0);"/>
    <path d="M 379.082 168.221 L 368.246 199.712 L 367.888 202.232 C 365.158 204.824 368.588 205.678 367.302 206.362 C 366.015 207.046 365.151 208.962 366.884 209.304 C 368.617 209.647 367.938 334.291 375.308 339.06 C 382.679 343.829 399.693 349.124 398.34 342.141 C 396.986 335.158 397.482 248.918 397.482 248.918 C 397.482 248.918 433.661 340.737 436.134 340.765 C 438.607 340.794 456.284 334.155 455.466 330.971 C 454.648 327.788 422.543 248.076 424.722 245.01 C 426.901 241.944 427.731 240.611 425.582 240.411 C 423.433 240.21 422.798 241.389 422.682 238.415 C 422.565 235.441 422.195 228.107 422.195 228.107 C 422.195 228.107 420.638 199.103 409.736 183.079 L 408.807 173.558 L 379.082 168.221 Z" fill="#2f2e41" style="opacity: 0.7; fill-opacity: 0.9; filter: url(#filter-0);"/>
    <path d="M 406.153 108.098 L 391.783 110.144 L 390.916 120.549 L 383.825 131.642 C 383.825 131.642 368.063 142.734 379.056 160.256 L 378.343 169.974 L 413.894 184.282 L 417.315 121.949 L 406.153 108.098 Z" fill="#f9a826" style="opacity: 0.7; fill-opacity: 0.9; filter: url(#filter-0);"/>
    <path d="M 382.061 221.676 C 381.121 219.742 381.892 217.41 383.8 216.418 C 383.988 216.324 384.184 216.246 384.385 216.184 L 385.001 202.345 L 392.133 200.187 L 389.239 219.053 C 389.634 220.808 388.796 222.608 387.2 223.436 C 385.333 224.383 383.053 223.636 382.107 221.77 C 382.091 221.739 382.076 221.708 382.061 221.676 Z" fill="#ffb6b6" style="opacity: 0.7; fill-opacity: 0.9; filter: url(#filter-0);"/>
    <path d="M 392.016 210.807 L 383.975 209.211 L 384.485 164.891 C 384.485 164.768 384.45 152.269 381.507 149.442 C 380.411 148.389 380.056 147.849 380.195 147.448 C 380.339 147.035 380.927 146.978 381.742 146.9 C 382.551 146.856 383.35 146.697 384.114 146.427 C 386.071 145.645 385.733 144.23 385.264 142.273 C 385.173 141.893 385.078 141.498 384.997 141.09 C 384.756 139.886 386.684 135.643 390.727 128.481 C 393.203 124.081 398.235 121.782 403.182 122.788 C 409.604 124.083 413.697 130.416 412.242 136.804 L 406.745 160.926 L 392.016 210.807 Z" fill="#f9a826" style="opacity: 0.7; fill-opacity: 0.9; filter: url(#filter-0);"/>
    <circle cx="397.526" cy="91.662" r="16.057" fill="#ffb6b6" style="opacity: 0.7; fill-opacity: 0.9; filter: url(#filter-0);"/>
    <path d="M 418.805 113.928 C 420.96 117.012 422.402 120.537 423.025 124.248 C 421.289 125.359 419.267 125.942 417.205 125.928 C 417.135 125.658 417.065 125.388 416.985 125.118 C 416.388 123.027 415.499 121.031 414.345 119.188 C 414.504 121.175 414.234 123.173 413.555 125.048 C 412.466 124.552 411.298 124.251 410.105 124.158 C 409.134 124.158 408.175 124.383 407.305 124.818 C 406.295 121.468 405.365 118.388 404.705 116.178 C 404.685 121.718 396.565 126.548 387.705 125.848 C 387.385 125.648 390.595 116.538 390.285 116.328 C 389.575 115.858 388.885 115.348 388.195 114.848 C 391.095 110.368 394.245 105.568 393.705 104.848 C 393.745 105.738 390.565 110.018 387.105 114.058 C 385.185 112.648 396.095 89.708 390.705 87.848 C 390.615 88.658 389.425 88.658 387.975 88.488 C 387.593 87.151 387.024 85.875 386.285 84.698 C 386.382 85.884 386.239 87.077 385.865 88.208 C 384.434 88.208 383.006 88.359 381.605 88.658 C 381.282 88.148 380.924 87.66 380.535 87.198 C 380.574 87.761 380.557 88.327 380.485 88.888 C 379.5 88.999 378.55 89.327 377.705 89.848 C 376.585 89.438 378.495 87.588 377.795 86.628 C 376.015 84.228 378.655 80.728 380.325 78.248 C 384.048 73.095 391.001 71.478 396.615 74.458 C 396.855 73.628 398.085 73.078 399.665 72.708 C 400.335 72.56 401.02 72.496 401.705 72.518 C 408.505 72.638 417.945 78.248 418.315 85.038 C 418.345 85.718 418.395 86.458 418.445 87.248 C 418.925 94.848 418.335 101.858 423.525 107.418 C 425.405 109.428 425.425 118.948 424.705 123.848 C 422.835 121.878 421.505 114.218 418.805 113.928 Z" fill="#2f2e41" style="opacity: 0.7; fill-opacity: 0.9; filter: url(#filter-0);"/>
    <path d="M 326.787 367.576 C 326.785 368.234 327.319 368.768 327.977 368.766 L 493.267 368.766 C 494.183 368.766 494.756 367.774 494.298 366.981 C 494.085 366.613 493.692 366.386 493.267 366.386 L 327.977 366.386 C 327.319 366.384 326.785 366.918 326.787 367.576 Z" fill="#ccc" style="opacity: 0.8; fill-opacity: 0.9; filter: url(#filter-0);"/>
    <path d="M 247.229 122.492 L 42.822 122.492 C 39.429 122.492 37.308 118.819 39.005 115.88 C 39.792 114.516 41.247 113.676 42.822 113.676 L 247.229 113.676 C 250.622 113.676 252.743 117.349 251.046 120.288 C 250.259 121.652 248.803 122.492 247.229 122.492 Z" fill="#3f3d56" style="opacity: 0.7; fill-opacity: 0.9; filter: url(#filter-0);"/>
    <path d="M 247.229 216.492 L 42.822 216.492 C 39.429 216.492 37.308 212.819 39.005 209.88 C 39.792 208.516 41.247 207.676 42.822 207.676 L 247.229 207.676 C 250.622 207.676 252.743 211.349 251.046 214.288 C 250.259 215.652 248.803 216.492 247.229 216.492 Z" fill="#f9a826" style="opacity: 0.7; fill-opacity: 0.9; filter: url(#filter-0);"/>
    <path d="M 350.703 169.523 L 42.822 169.523 C 39.429 169.523 37.308 165.849 39.005 162.911 C 39.792 161.547 41.247 160.707 42.822 160.707 L 350.703 160.707 C 354.096 160.707 356.217 164.38 354.52 167.319 C 353.733 168.683 352.278 169.523 350.703 169.523 Z" fill="#f9a826" style="opacity: 0.7; fill-opacity: 0.9; filter: url(#filter-0);"/>
    <path d="M 251.636 229.737 C 251.084 229.737 250.636 229.29 250.636 228.737 L 250.636 195.431 C 250.636 194.661 251.47 194.18 252.136 194.565 C 252.446 194.743 252.636 195.073 252.636 195.431 L 252.636 228.737 C 252.636 229.29 252.189 229.737 251.636 229.737 Z" fill="#3f3d56" style="opacity: 0.7; fill-opacity: 0.9; filter: url(#filter-0);"/>
    <path d="M 20.953 101.1 C 20.953 100.547 21.401 100.1 21.953 100.1 L 55.26 100.1 C 56.03 100.1 56.511 100.933 56.126 101.6 C 55.947 101.909 55.617 102.1 55.26 102.1 L 21.953 102.1 C 21.401 102.1 20.953 101.652 20.953 101.1 Z" fill="#3f3d56" style="opacity: 0.7; fill-opacity: 0.9;"/>
    <path d="M 38.606 135.737 C 38.054 135.737 37.607 135.29 37.606 134.737 L 37.606 101.431 C 37.606 100.661 38.44 100.18 39.106 100.565 C 39.416 100.743 39.606 101.073 39.606 101.431 L 39.606 134.737 C 39.606 135.29 39.159 135.737 38.606 135.737 Z" fill="#3f3d56" style="opacity: 0.7; fill-opacity: 0.9;"/>
  </g>
</svg>